<?xml version="1.0" encoding="utf-8"?>
<!-- Generator: Adobe Illustrator 23.0.5, SVG Export Plug-In . SVG Version: 6.00 Build 0)  -->
<svg version="1.1" id="Layer_1" xmlns="http://www.w3.org/2000/svg" xmlns:xlink="http://www.w3.org/1999/xlink" x="0px" y="0px"
	 viewBox="0 0 360 360" style="enable-background:new 0 0 360 360;" xml:space="preserve">
<g>
	<path d="M140.2,222.1c-4.2,0-6.6,5.8-7.1,17.5l-0.3,6.1h14.4C147.2,230,144.9,222.1,140.2,222.1z"/>
	<path d="M176.6,0C79.1,0,0,80.6,0,180s79.1,180,176.6,180s176.6-80.6,176.6-180S274.1,0,176.6,0z M180.6,69.9
		c7.2,0,10.7,2.2,10.7,6.7s-3.6,6.7-10.7,6.7s-10.7-2.2-10.7-6.7S173.4,69.9,180.6,69.9z M166.7,146.2l-0.1,1.6
		c0,4.1,1.2,6.2,3.7,6.2c2.6,0,3.9-1.5,3.9-4.5c0-1.7-1.5-4.5-4.6-8.6V89.8c5.9,0,13.5-0.5,23.1-1.4v51.8l0.5,7.1l-3.9,8.8
		c-2.9,2.3-7.4,3.4-13.4,3.4c-9,0-14.8-2.9-17.3-8.8L166.7,146.2z M140.9,286.6c-22.2,0-33.2-11.3-33.2-33.8
		c0-10.9,2.9-19.9,8.8-26.9s13.4-10.5,22.6-10.5c19.2,0,28.8,12.6,28.8,37.9h-35.1c0,17.7,4.4,26.6,13.3,26.6
		c8.3,0,12.4-5,12.4-15.1c0-1.3,0-2.9-0.1-4.6l9.7,2.9C167.1,278.8,158,286.6,140.9,286.6z M208,286.6c-21.9,0-32.8-11.3-32.8-33.9
		c0-11.3,3.2-20.4,9.6-27.1c6.4-6.7,14.9-10.1,25.6-10.1c15.4,0,23.1,7.1,23.1,21.4l-11.3,5.6l0.1-6.5c0-9.7-3.2-14.5-9.6-14.5
		c-8.4,0-12.7,9.5-12.7,28.5c0,11.7,0.9,19.8,2.7,24.2c1.8,4.4,5.1,6.6,10,6.6c8.9,0,13.4-5.9,13.4-17.7c0-1.7-0.3-4.3-0.8-8.1
		l10.2,3.2l0.1,2.8C235.7,278,226.5,286.6,208,286.6z M282.6,285.1v-51.5c0-3.9-1.3-5.8-3.8-5.8c-2.6,0-5.1,2.5-7.4,7.5
		c-2.3,5-3.4,10.4-3.4,16.1v33.7h-24.1v-87.7h-36.8v-21.8c-21.5,16.2-49.2,24.3-82.9,24.3c-12.2,0-22.7-0.9-31.7-2.6v20.2h10.7v7.6
		H92.5v47.9c0,3,0.9,4.5,2.8,4.5c1.4,0,2.2-1,2.4-3l6.9,0.7c-1.9,7.1-7.9,10.6-18.1,10.6c-12.1,0-18.1-5.2-18.1-15.7v-45h-8v-7.6h8
		v-12c7.4-2.1,14.6-5.1,21.6-8.9c-22.6-4.9-34.2-15.4-34.2-32V61.1c31.4-0.7,62.5-1.9,93.4-3.5v106c0,9.2,5.3,13.8,15.9,13.8
		c28,0,42-15.9,42-47.6V61.1c31.2-0.7,62.4-1.9,93.4-3.5v139.8H268V229c5.2-8.9,12.5-13.4,22-13.4c11.2,0,16.7,5.1,16.7,15.3v54.2
		H282.6z"/>
</g>
</svg>
